PathFileType	4	(X/Y/Z)	DARI_DATA/Captury_Subj6_bilateral_squat02.trc
DataRate	CameraRate	NumFrames	NumMarkers	Units	OrigDataRate	OrigDataStartFrame	OrigNumFrames
60	60	5	47	mm	59.99879837036133	77	204
Frame#	Time		LeftUpLeg_		RightUpLeg_		LeftLeg_		RightLeg_		LeftFoot_		RightFoot_		LeftToeBase_		RightToeBase_		Knee_Lateral_r		Knee_Lateral_l		Ankle_Lateral_r		Ankle_Lateral_l		LeftArm_		LeftForeArm_		LeftHand_		LeftHandEE		RightArm_		RightForeArm_		RightHand_		RightHandEE		Spine_		Spine1_		Spine2_		Spine3_		Spine4_		Spine5_		Spine_x		Spine_y		Spine_z		RASI		LASI		RIPS		LIPS		RTHI		LTHI		RTIB		LTIB		RTOE		LTOE		RHEE		LHEE		RHipAngles		LHipAngles		RKneeAngles		LKneeAngles		RAnkleAngles		LAnkleAngles
			X1	Y1	Z1	X2	Y2	Z2	X3	Y3	Z3	X4	Y4	Z4	X5	Y5	Z5	X6	Y6	Z6	X7	Y7	Z7	X8	Y8	Z8	X9	Y9	Z9	X10	Y10	Z10	X11	Y11	Z11	X12	Y12	Z12	X13	Y13	Z13	X14	Y14	Z14	X15	Y15	Z15	X16	Y16	Z16	X17	Y17	Z17	X18	Y18	Z18	X19	Y19	Z19	X20	Y20	Z20	X21	Y21	Z21	X22	Y22	Z22	X23	Y23	Z23	X24	Y24	Z24	X25	Y25	Z25	X26	Y26	Z26	X27	Y27	Z27	X28	Y28	Z28	X29	Y29	Z29	X30	Y30	Z30	X31	Y31	Z31	X32	Y32	Z32	X33	Y33	Z33	X34	Y34	Z34	X35	Y35	Z35	X36	Y36	Z36	X37	Y37	Z37	X38	Y38	Z38	X39	Y39	Z39	X40	Y40	Z40	X41	Y41	Z41	X42	Y42	Z42	X43	Y43	Z43	X44	Y44	Z44	X45	Y45	Z45	X46	Y46	Z46	X47	Y47	Z47

77	1.26667	-78.55115	1010.62384	31.78765	118.17174	1018.00739	40.75530	-145.35287	534.97339	27.18585	167.93762	540.36499	30.36296	-197.84335	96.17007	67.08704	211.60471	100.65997	70.96288	-224.69366	32.87656	-67.54004	237.17203	35.52447	-63.03388	222.80457	543.15521	34.99876	-200.11583	539.78656	31.37030	264.56277	105.52663	97.49542	-250.94226	101.89441	93.16299	-129.67639	1613.57788	47.18541	-232.74387	1487.65991	-255.77095	-211.35645	1457.07019	-526.59717	-192.24942	1445.03125	-623.77997	173.75111	1590.83752	36.44841	262.17831	1454.70593	-266.71759	223.16672	1432.35242	-536.38110	207.65364	1410.10779	-632.39691	14.67324	1121.37549	60.81436	12.96195	1242.18921	48.74459	13.40297	1329.90125	69.22307	16.72144	1431.48218	118.51596	25.79867	1593.48071	129.96591	0.00000	0.00000	0.00000	69.73450	1123.44214	63.32434	12.53904	1176.47217	62.26817	12.22049	1119.82703	115.89520	187.02417	1098.23340	-64.72202	-143.34341	1085.83386	-79.78189	58.53113	1089.04175	94.99857	-29.56689	1085.73511	90.98260	217.39496	802.15149	45.88540	-185.49152	798.54431	38.95337	233.21001	344.85767	35.34035	-219.14920	274.70859	31.48057	251.37155	24.10506	-146.28714	-235.38165	27.94911	-151.94751	205.79036	28.55932	132.45212	-203.27110	24.60686	129.23593	0.85050	0.78456	2.20571	1.08671	7.20315	6.93897	-0.68823	0.08650	-0.00309	0.02054	-0.92350	-0.04194	5.33531	4.25712	-0.09894	4.94901	2.66460	5.67536
78	1.28333	-78.79823	1011.17035	34.98492	117.94004	1018.50073	43.65273	-145.32758	535.50739	28.23217	167.36235	540.91626	29.60065	-197.95737	96.54727	66.17638	211.21786	101.25351	70.45381	-225.05240	32.66811	-68.12466	237.01010	35.41093	-63.15370	222.27020	543.65002	33.76128	-200.08913	540.26886	32.49334	264.40097	106.23389	96.51082	-251.02087	102.36768	92.30305	-130.37537	1616.49622	43.69052	-231.65042	1502.11108	-264.40073	-207.68710	1479.27527	-535.77551	-188.69359	1471.62000	-633.42365	173.58170	1593.54114	33.50002	260.25983	1470.62366	-275.75555	220.94028	1458.02979	-546.00616	206.68553	1440.35168	-643.15967	14.51920	1122.01855	63.33616	12.80731	1242.88086	50.55507	13.22663	1330.84912	70.46631	16.47039	1432.91003	119.03733	25.33777	1595.12537	129.26056	0.00000	0.00000	0.00000	69.58477	1124.07031	65.76221	12.41395	1177.12280	64.51897	12.13947	1120.74512	118.42725	186.69040	1098.16736	-62.31398	-143.70300	1085.85718	-76.87030	58.40697	1089.83325	97.62197	-29.69794	1086.55054	93.74028	217.09323	802.56970	46.43792	-185.60791	798.99701	41.26804	232.60367	345.39160	34.29446	-219.22173	275.25421	31.39999	251.17970	23.65451	-146.36514	-235.96751	27.44146	-152.48508	205.87981	29.51464	132.40764	-203.03267	25.21336	128.61797	0.16628	0.74787	1.79300	0.53835	7.16543	6.89900	-1.15444	0.13051	-0.00678	0.01963	-0.86761	-0.05429	5.58523	4.69274	0.22971	5.45659	2.73938	5.54750
79	1.30000	-79.13914	1011.66943	38.23845	117.63449	1018.66583	46.36176	-145.50432	536.03162	28.68222	167.05319	541.22876	27.96111	-198.10884	96.93530	65.05341	210.85883	101.66336	69.90116	-225.66980	32.59689	-68.93318	237.34752	35.15589	-63.23991	221.96721	543.92798	32.06237	-200.26373	540.74750	33.02064	264.07056	106.75911	95.87727	-251.13504	102.81783	91.24181	-131.19362	1618.75049	40.16249	-230.35690	1515.51855	-272.52054	-203.73447	1499.18921	-544.11700	-185.70586	1493.84045	-642.10107	173.41931	1596.02258	30.60405	258.51260	1485.67737	-283.79047	219.26482	1481.51990	-554.31287	205.64037	1467.05713	-652.08667	14.43633	1122.30420	66.57278	12.79837	1243.26721	53.36457	13.21168	1331.52380	72.65228	16.33011	1434.25720	120.12876	24.78605	1596.76160	128.21588	0.00000	0.00000	0.00000	69.51180	1124.26245	68.84644	12.42286	1177.40894	67.88553	12.21144	1120.91040	121.66741	186.21054	1098.46118	-59.62104	-144.24225	1086.71179	-73.26298	58.36985	1089.97168	100.66083	-29.75089	1086.83850	97.02298	216.79990	802.72363	47.06343	-185.86728	799.42334	43.33943	232.25665	345.70224	33.08532	-219.40340	275.77054	30.96161	251.83279	23.09836	-146.35381	-236.92584	27.18134	-153.23683	205.59192	30.26088	132.24841	-202.78587	25.78403	127.73402	-0.22067	0.82792	1.88100	0.33478	7.05962	6.78057	-1.81499	0.16485	-0.01846	-0.11091	-0.83499	-0.05776	5.74163	4.95347	0.45196	5.86803	2.88729	5.45963
80	1.31667	-79.74544	1012.03369	40.96653	117.03999	1018.58722	49.17439	-145.81265	536.41382	28.80693	167.22275	541.45337	25.68177	-198.40125	97.20593	63.82748	210.65271	102.00656	69.22504	-225.82893	32.61662	-70.06573	237.07111	34.89716	-63.62770	222.13692	544.20013	29.74947	-200.60074	541.08411	32.82062	263.88873	107.16382	95.13923	-251.57738	103.09761	89.70801	-132.04553	1620.49487	36.74904	-228.58421	1527.80420	-280.03088	-200.03009	1516.22180	-551.67499	-182.98967	1512.55127	-649.91278	173.28458	1598.00806	28.05431	256.89005	1499.93115	-290.77463	217.85376	1502.13342	-561.35059	205.28769	1490.80859	-659.67841	14.06956	1122.47681	69.25655	12.61847	1243.48071	55.43824	13.00359	1331.99097	74.05459	15.87431	1435.32239	120.48294	23.94626	1598.03845	126.63377	0.00000	0.00000	0.00000	69.14833	1124.31104	71.55387	12.18134	1177.58704	70.52499	11.81638	1121.13147	124.35125	185.84645	1098.14209	-56.83982	-144.62617	1087.13660	-70.62373	57.91360	1090.07092	103.39017	-30.21243	1087.13611	99.71445	216.56116	802.81421	47.48602	-186.39828	799.71655	44.41791	232.24857	345.88660	31.48382	-219.58813	276.11063	30.03480	251.50696	22.56913	-146.71054	-237.01550	27.11769	-154.37323	205.42152	30.88717	131.89804	-203.06627	26.15931	126.62756	-0.88814	1.02383	1.80575	0.04961	6.90563	6.43725	-2.64155	0.07812	-0.03904	-0.23970	-0.82695	-0.04364	5.77921	4.97005	0.50876	6.12461	3.15975	5.43903
81	1.33333	-80.67742	1012.01508	43.77019	116.09129	1017.98077	52.78781	-146.04785	536.39789	28.21905	167.80783	541.41766	22.12939	-198.73981	97.16135	62.72139	210.63528	102.22577	68.73362	-225.78552	32.57475	-71.25082	237.66855	34.53558	-63.70010	222.67033	544.23895	26.79881	-200.88280	540.98492	31.64631	263.58939	107.48166	95.19972	-252.17935	103.03355	88.05811	-133.10602	1621.59167	33.46791	-226.22910	1538.50891	-286.97894	-196.70125	1530.01514	-558.63318	-180.86484	1528.14526	-657.12292	173.41541	1599.43835	25.97065	255.00653	1512.89600	-296.69659	216.89056	1520.27917	-567.31201	205.63470	1510.71008	-665.98450	13.34913	1122.17334	72.46561	12.23680	1243.19226	57.92965	12.62404	1331.97363	75.70166	15.25164	1436.01245	120.76997	23.05892	1598.91333	124.39577	0.00000	0.00000	0.00000	68.42322	1123.84314	74.98958	11.61989	1177.28870	73.73633	10.86554	1120.82544	127.55034	185.56953	1097.34839	-52.92828	-144.87502	1087.32996	-68.07206	56.95579	1089.63110	106.77319	-31.16275	1086.95959	102.73486	216.21140	802.51837	48.63824	-187.11353	799.56390	44.84473	232.71057	345.87408	29.79210	-219.68362	276.05273	28.70711	252.55740	21.95333	-146.66479	-236.69075	27.15300	-155.60019	204.86159	31.36388	131.65018	-203.66374	26.12729	125.51592	-1.81328	1.32343	2.16670	-0.23198	6.67132	6.02881	-3.91226	0.01299	-0.06146	-0.56284	-0.77212	-0.01469	5.66853	4.68643	0.40539	6.15048	3.54822	5.48043
